<mxfile host="app.diagrams.net" modified="2023-09-22T23:34:06.384Z" agent="Mozilla/5.0 (Macintosh; Intel Mac OS X 10_15_7) AppleWebKit/537.36 (KHTML, like Gecko) Chrome/116.0.0.0 Safari/537.36" etag="UBMP6VkJRiF67W4_Up8l" version="21.8.0" type="device">
  <diagram name="Page-1" id="klcaegFonHgltbatMrLE">
    <mxGraphModel dx="1902" dy="1789" grid="1" gridSize="10" guides="1" tooltips="1" connect="1" arrows="1" fold="1" page="1" pageScale="1" pageWidth="850" pageHeight="1100" math="0" shadow="0">
      <root>
        <mxCell id="0" />
        <mxCell id="1" parent="0" />
        <mxCell id="_iwjs-DijUTAnCLsvJNr-2" value="Patient" style="shape=umlActor;verticalLabelPosition=bottom;verticalAlign=top;html=1;outlineConnect=0;" vertex="1" parent="1">
          <mxGeometry x="50" y="390" width="30" height="60" as="geometry" />
        </mxCell>
        <mxCell id="_iwjs-DijUTAnCLsvJNr-10" value="Initiate Sign Up by entering basic details and email" style="ellipse;whiteSpace=wrap;html=1;" vertex="1" parent="1">
          <mxGeometry x="170" y="380" width="120" height="80" as="geometry" />
        </mxCell>
        <mxCell id="_iwjs-DijUTAnCLsvJNr-12" value="" style="endArrow=none;html=1;rounded=0;exitX=0.5;exitY=0.5;exitDx=0;exitDy=0;exitPerimeter=0;entryX=0;entryY=0.5;entryDx=0;entryDy=0;" edge="1" parent="1" source="_iwjs-DijUTAnCLsvJNr-2" target="_iwjs-DijUTAnCLsvJNr-10">
          <mxGeometry width="50" height="50" relative="1" as="geometry">
            <mxPoint x="400" y="350" as="sourcePoint" />
            <mxPoint x="160" y="290" as="targetPoint" />
          </mxGeometry>
        </mxCell>
        <mxCell id="_iwjs-DijUTAnCLsvJNr-14" value="Rob" style="shape=umlActor;verticalLabelPosition=bottom;verticalAlign=top;html=1;outlineConnect=0;fillColor=#000000;" vertex="1" parent="1">
          <mxGeometry x="800" y="350" width="30" height="60" as="geometry" />
        </mxCell>
        <mxCell id="_iwjs-DijUTAnCLsvJNr-15" value="Receive Invite Link" style="ellipse;whiteSpace=wrap;html=1;" vertex="1" parent="1">
          <mxGeometry x="370" y="150" width="120" height="80" as="geometry" />
        </mxCell>
        <mxCell id="_iwjs-DijUTAnCLsvJNr-16" value="Manipulate the invitation link" style="ellipse;whiteSpace=wrap;html=1;fillColor=#000000;fontColor=#FFFFFF;" vertex="1" parent="1">
          <mxGeometry x="610" y="210" width="120" height="80" as="geometry" />
        </mxCell>
        <mxCell id="_iwjs-DijUTAnCLsvJNr-18" value="&amp;lt;&amp;lt;includes&amp;gt;&amp;gt;" style="endArrow=open;endSize=12;dashed=1;html=1;rounded=0;exitX=1;exitY=0;exitDx=0;exitDy=0;entryX=0;entryY=0.5;entryDx=0;entryDy=0;" edge="1" parent="1" source="_iwjs-DijUTAnCLsvJNr-10" target="_iwjs-DijUTAnCLsvJNr-15">
          <mxGeometry width="160" relative="1" as="geometry">
            <mxPoint x="330" y="320" as="sourcePoint" />
            <mxPoint x="490" y="320" as="targetPoint" />
          </mxGeometry>
        </mxCell>
        <mxCell id="_iwjs-DijUTAnCLsvJNr-19" value="&amp;lt;&amp;lt;threatens&amp;gt;&amp;gt;" style="endArrow=open;endSize=12;dashed=1;html=1;rounded=0;exitX=0;exitY=0.5;exitDx=0;exitDy=0;entryX=1;entryY=0.663;entryDx=0;entryDy=0;entryPerimeter=0;" edge="1" parent="1" source="_iwjs-DijUTAnCLsvJNr-16" target="_iwjs-DijUTAnCLsvJNr-15">
          <mxGeometry width="160" relative="1" as="geometry">
            <mxPoint x="330" y="320" as="sourcePoint" />
            <mxPoint x="490" y="320" as="targetPoint" />
          </mxGeometry>
        </mxCell>
        <mxCell id="_iwjs-DijUTAnCLsvJNr-23" value="" style="endArrow=none;html=1;rounded=0;entryX=0.5;entryY=0.5;entryDx=0;entryDy=0;entryPerimeter=0;" edge="1" parent="1" source="_iwjs-DijUTAnCLsvJNr-16" target="_iwjs-DijUTAnCLsvJNr-14">
          <mxGeometry width="50" height="50" relative="1" as="geometry">
            <mxPoint x="710" y="360" as="sourcePoint" />
            <mxPoint x="760" y="310" as="targetPoint" />
          </mxGeometry>
        </mxCell>
        <mxCell id="_iwjs-DijUTAnCLsvJNr-24" value="Enter relevant details" style="ellipse;whiteSpace=wrap;html=1;" vertex="1" parent="1">
          <mxGeometry x="365" y="270" width="120" height="80" as="geometry" />
        </mxCell>
        <mxCell id="_iwjs-DijUTAnCLsvJNr-25" value="&amp;lt;&amp;lt;includes&amp;gt;&amp;gt;" style="endArrow=open;endSize=12;dashed=1;html=1;rounded=0;exitX=0.5;exitY=1;exitDx=0;exitDy=0;" edge="1" parent="1" source="_iwjs-DijUTAnCLsvJNr-15" target="_iwjs-DijUTAnCLsvJNr-24">
          <mxGeometry width="160" relative="1" as="geometry">
            <mxPoint x="360" y="350" as="sourcePoint" />
            <mxPoint x="520" y="350" as="targetPoint" />
          </mxGeometry>
        </mxCell>
        <mxCell id="_iwjs-DijUTAnCLsvJNr-26" value="Enter new username and password" style="ellipse;whiteSpace=wrap;html=1;" vertex="1" parent="1">
          <mxGeometry x="365" y="390" width="120" height="80" as="geometry" />
        </mxCell>
        <mxCell id="_iwjs-DijUTAnCLsvJNr-27" value="&amp;lt;&amp;lt;includes&amp;gt;&amp;gt;" style="endArrow=open;endSize=12;dashed=1;html=1;rounded=0;exitX=0.5;exitY=1;exitDx=0;exitDy=0;entryX=0.5;entryY=0;entryDx=0;entryDy=0;" edge="1" parent="1" source="_iwjs-DijUTAnCLsvJNr-24" target="_iwjs-DijUTAnCLsvJNr-26">
          <mxGeometry width="160" relative="1" as="geometry">
            <mxPoint x="429.5" y="410" as="sourcePoint" />
            <mxPoint x="430" y="450" as="targetPoint" />
            <mxPoint as="offset" />
          </mxGeometry>
        </mxCell>
        <mxCell id="_iwjs-DijUTAnCLsvJNr-29" value="MFA using phone" style="ellipse;whiteSpace=wrap;html=1;" vertex="1" parent="1">
          <mxGeometry x="360" y="520" width="120" height="80" as="geometry" />
        </mxCell>
        <mxCell id="_iwjs-DijUTAnCLsvJNr-30" value="&amp;lt;&amp;lt;includes&amp;gt;&amp;gt;" style="endArrow=open;endSize=12;dashed=1;html=1;rounded=0;exitX=0.5;exitY=1;exitDx=0;exitDy=0;entryX=0.5;entryY=0;entryDx=0;entryDy=0;" edge="1" parent="1" target="_iwjs-DijUTAnCLsvJNr-29">
          <mxGeometry width="160" relative="1" as="geometry">
            <mxPoint x="420" y="470" as="sourcePoint" />
            <mxPoint x="420" y="500" as="targetPoint" />
          </mxGeometry>
        </mxCell>
        <mxCell id="_iwjs-DijUTAnCLsvJNr-34" value="OpenMRS Patient Module" style="shape=umlActor;verticalLabelPosition=bottom;verticalAlign=top;html=1;" vertex="1" parent="1">
          <mxGeometry x="60" y="90" width="30" height="60" as="geometry" />
        </mxCell>
        <mxCell id="_iwjs-DijUTAnCLsvJNr-37" value="Send Invite Link" style="ellipse;whiteSpace=wrap;html=1;" vertex="1" parent="1">
          <mxGeometry x="180" y="85" width="140" height="70" as="geometry" />
        </mxCell>
        <mxCell id="_iwjs-DijUTAnCLsvJNr-38" value="" style="endArrow=none;html=1;rounded=0;entryX=0;entryY=0.286;entryDx=0;entryDy=0;entryPerimeter=0;exitX=0.5;exitY=0.5;exitDx=0;exitDy=0;exitPerimeter=0;" edge="1" parent="1" source="_iwjs-DijUTAnCLsvJNr-34">
          <mxGeometry width="50" height="50" relative="1" as="geometry">
            <mxPoint x="70" y="119.5" as="sourcePoint" />
            <mxPoint x="180" y="119.51999999999998" as="targetPoint" />
          </mxGeometry>
        </mxCell>
        <mxCell id="_iwjs-DijUTAnCLsvJNr-40" value="&amp;lt;&amp;lt;prevents&amp;gt;&amp;gt;" style="endArrow=open;endSize=12;dashed=1;html=1;rounded=0;entryX=0.417;entryY=-0.012;entryDx=0;entryDy=0;entryPerimeter=0;exitX=1;exitY=0.5;exitDx=0;exitDy=0;" edge="1" parent="1" source="_iwjs-DijUTAnCLsvJNr-52">
          <mxGeometry width="160" relative="1" as="geometry">
            <mxPoint x="470.00000000000637" y="-59.04" as="sourcePoint" />
            <mxPoint x="670.0400000000004" y="209.99999999999997" as="targetPoint" />
            <Array as="points">
              <mxPoint x="670" y="-59.04" />
            </Array>
          </mxGeometry>
        </mxCell>
        <mxCell id="_iwjs-DijUTAnCLsvJNr-41" value="Click Login" style="ellipse;whiteSpace=wrap;html=1;" vertex="1" parent="1">
          <mxGeometry x="365" y="650" width="140" height="70" as="geometry" />
        </mxCell>
        <mxCell id="_iwjs-DijUTAnCLsvJNr-43" value="&amp;lt;&amp;lt;includes&amp;gt;&amp;gt;" style="endArrow=open;endSize=12;dashed=1;html=1;rounded=0;exitX=0.5;exitY=1;exitDx=0;exitDy=0;entryX=0.4;entryY=0.029;entryDx=0;entryDy=0;entryPerimeter=0;" edge="1" parent="1" source="_iwjs-DijUTAnCLsvJNr-29" target="_iwjs-DijUTAnCLsvJNr-41">
          <mxGeometry x="-0.3567" y="10" width="160" relative="1" as="geometry">
            <mxPoint x="430" y="480" as="sourcePoint" />
            <mxPoint x="430" y="520" as="targetPoint" />
            <mxPoint as="offset" />
          </mxGeometry>
        </mxCell>
        <mxCell id="_iwjs-DijUTAnCLsvJNr-44" value="Initiate Identity theft" style="ellipse;whiteSpace=wrap;html=1;fillColor=#000000;fontColor=#FFFFFF;" vertex="1" parent="1">
          <mxGeometry x="610" y="370" width="120" height="80" as="geometry" />
        </mxCell>
        <mxCell id="_iwjs-DijUTAnCLsvJNr-46" value="&amp;lt;&amp;lt;includes&amp;gt;&amp;gt;" style="endArrow=open;endSize=12;dashed=1;html=1;rounded=0;exitX=0.416;exitY=0.036;exitDx=0;exitDy=0;exitPerimeter=0;" edge="1" parent="1" source="_iwjs-DijUTAnCLsvJNr-37" target="_iwjs-DijUTAnCLsvJNr-52">
          <mxGeometry x="-0.1098" y="6" width="160" relative="1" as="geometry">
            <mxPoint x="240" y="80" as="sourcePoint" />
            <mxPoint x="300" y="40" as="targetPoint" />
            <mxPoint as="offset" />
          </mxGeometry>
        </mxCell>
        <mxCell id="_iwjs-DijUTAnCLsvJNr-49" value="&amp;lt;&amp;lt;threatens&amp;gt;&amp;gt;" style="endArrow=open;endSize=12;dashed=1;html=1;rounded=0;entryX=1;entryY=0.5;entryDx=0;entryDy=0;" edge="1" parent="1" target="_iwjs-DijUTAnCLsvJNr-24">
          <mxGeometry width="160" relative="1" as="geometry">
            <mxPoint x="600" y="400" as="sourcePoint" />
            <mxPoint x="490" y="380" as="targetPoint" />
          </mxGeometry>
        </mxCell>
        <mxCell id="_iwjs-DijUTAnCLsvJNr-50" value="&amp;lt;&amp;lt;threatens&amp;gt;&amp;gt;" style="endArrow=open;endSize=12;dashed=1;html=1;rounded=0;entryX=1;entryY=0.5;entryDx=0;entryDy=0;exitX=-0.046;exitY=0.641;exitDx=0;exitDy=0;exitPerimeter=0;" edge="1" parent="1" source="_iwjs-DijUTAnCLsvJNr-44">
          <mxGeometry width="160" relative="1" as="geometry">
            <mxPoint x="595" y="510" as="sourcePoint" />
            <mxPoint x="480" y="420" as="targetPoint" />
          </mxGeometry>
        </mxCell>
        <mxCell id="_iwjs-DijUTAnCLsvJNr-52" value="Embed Shared token" style="ellipse;whiteSpace=wrap;html=1;" vertex="1" parent="1">
          <mxGeometry x="340" y="-100" width="120" height="80" as="geometry" />
        </mxCell>
        <mxCell id="_iwjs-DijUTAnCLsvJNr-55" value="Set link expiry time" style="ellipse;whiteSpace=wrap;html=1;" vertex="1" parent="1">
          <mxGeometry x="340" y="10" width="120" height="80" as="geometry" />
        </mxCell>
        <mxCell id="_iwjs-DijUTAnCLsvJNr-56" value="&amp;lt;&amp;lt;includes&amp;gt;&amp;gt;" style="endArrow=open;endSize=12;dashed=1;html=1;rounded=0;exitX=0.5;exitY=0;exitDx=0;exitDy=0;entryX=0.037;entryY=0.641;entryDx=0;entryDy=0;entryPerimeter=0;" edge="1" parent="1" source="_iwjs-DijUTAnCLsvJNr-37" target="_iwjs-DijUTAnCLsvJNr-55">
          <mxGeometry x="-0.1098" y="6" width="160" relative="1" as="geometry">
            <mxPoint x="248" y="98" as="sourcePoint" />
            <mxPoint x="375" y="-18" as="targetPoint" />
            <mxPoint as="offset" />
          </mxGeometry>
        </mxCell>
        <mxCell id="_iwjs-DijUTAnCLsvJNr-57" value="Validate the shared token" style="ellipse;whiteSpace=wrap;html=1;" vertex="1" parent="1">
          <mxGeometry x="50" y="230" width="140" height="70" as="geometry" />
        </mxCell>
        <mxCell id="_iwjs-DijUTAnCLsvJNr-58" value="&amp;lt;&amp;lt;includes&amp;gt;&amp;gt;" style="endArrow=open;endSize=12;dashed=1;html=1;rounded=0;exitX=0.5;exitY=1;exitDx=0;exitDy=0;" edge="1" parent="1" source="_iwjs-DijUTAnCLsvJNr-41" target="_iwjs-DijUTAnCLsvJNr-57">
          <mxGeometry x="0.2981" width="160" relative="1" as="geometry">
            <mxPoint x="440" y="770" as="sourcePoint" />
            <mxPoint x="-50" y="770" as="targetPoint" />
            <Array as="points">
              <mxPoint x="-50" y="720" />
              <mxPoint x="-50" y="265" />
            </Array>
            <mxPoint y="1" as="offset" />
          </mxGeometry>
        </mxCell>
        <mxCell id="_iwjs-DijUTAnCLsvJNr-63" value="&amp;lt;&amp;lt;prevents&amp;gt;&amp;gt;" style="endArrow=open;endSize=12;dashed=1;html=1;rounded=0;" edge="1" parent="1">
          <mxGeometry x="-0.3661" y="9" width="160" relative="1" as="geometry">
            <mxPoint x="480" y="559.17" as="sourcePoint" />
            <mxPoint x="665" y="460" as="targetPoint" />
            <Array as="points">
              <mxPoint x="665" y="559" />
            </Array>
            <mxPoint as="offset" />
          </mxGeometry>
        </mxCell>
        <mxCell id="_iwjs-DijUTAnCLsvJNr-64" value="" style="endArrow=none;html=1;rounded=0;exitX=0.5;exitY=0;exitDx=0;exitDy=0;" edge="1" parent="1" source="_iwjs-DijUTAnCLsvJNr-57">
          <mxGeometry width="50" height="50" relative="1" as="geometry">
            <mxPoint x="158.71299943276108" y="255.86872665392093" as="sourcePoint" />
            <mxPoint x="80" y="170" as="targetPoint" />
          </mxGeometry>
        </mxCell>
        <mxCell id="_iwjs-DijUTAnCLsvJNr-65" value="&amp;lt;&amp;lt;prevents&amp;gt;&amp;gt;" style="endArrow=open;endSize=12;dashed=1;html=1;rounded=0;entryX=0.5;entryY=0;entryDx=0;entryDy=0;exitX=1;exitY=0.5;exitDx=0;exitDy=0;" edge="1" parent="1" source="_iwjs-DijUTAnCLsvJNr-55" target="_iwjs-DijUTAnCLsvJNr-16">
          <mxGeometry x="-0.3732" width="160" relative="1" as="geometry">
            <mxPoint x="480" y="49.44" as="sourcePoint" />
            <mxPoint x="660" y="190" as="targetPoint" />
            <Array as="points">
              <mxPoint x="670" y="49" />
            </Array>
            <mxPoint as="offset" />
          </mxGeometry>
        </mxCell>
        <mxCell id="_iwjs-DijUTAnCLsvJNr-67" value="" style="endArrow=none;html=1;rounded=0;entryX=0.5;entryY=0.5;entryDx=0;entryDy=0;entryPerimeter=0;" edge="1" parent="1" target="_iwjs-DijUTAnCLsvJNr-14">
          <mxGeometry width="50" height="50" relative="1" as="geometry">
            <mxPoint x="730" y="410" as="sourcePoint" />
            <mxPoint x="780" y="360" as="targetPoint" />
          </mxGeometry>
        </mxCell>
      </root>
    </mxGraphModel>
  </diagram>
</mxfile>
